<svg xmlns="http://www.w3.org/2000/svg" viewBox="0 0 407.428 407.428" style="enable-background:new 0 0 407.428 407.428" xml:space="preserve"><path style="fill:#caf5ff" d="M282.555 298.231a144.124 144.124 0 0 0 34.093-31.273c19.292-24.465 30.788-55.342 30.788-88.896 0-79.358-64.341-143.699-143.699-143.699-79.376 0-143.699 64.341-143.699 143.699 0 33.464 11.442 64.252 30.608 88.68a144.273 144.273 0 0 0 34.254 31.47"/><path style="fill:#333" d="M124.895 303.213a4.973 4.973 0 0 1-2.738-.82c-13.498-8.856-25.422-19.812-35.443-32.562-20.724-26.414-31.677-58.146-31.677-91.77 0-81.993 66.706-148.699 148.699-148.699 45.461 0 87.829 20.396 116.239 55.959a4.999 4.999 0 0 1-.786 7.027 4.998 4.998 0 0 1-7.027-.786c-26.502-33.174-66.022-52.2-108.426-52.2-76.479 0-138.699 62.22-138.699 138.699 0 31.363 10.215 60.961 29.542 85.594a138.928 138.928 0 0 0 33.063 30.376 5 5 0 0 1-2.747 9.182zM282.559 303.231a4.999 4.999 0 0 1-2.75-9.179 138.855 138.855 0 0 0 32.91-30.188c19.441-24.654 29.716-54.323 29.716-85.802 0-23.674-6.068-47.042-17.548-67.576a5 5 0 1 1 8.728-4.88c12.312 22.022 18.82 47.077 18.82 72.456 0 33.748-11.018 65.559-31.861 91.992a148.844 148.844 0 0 1-35.273 32.355c-.847.557-1.8.822-2.742.822z"/><path style="fill:#fff" d="M171.789 63.627a5 5 0 0 1-1.304-9.827 127.231 127.231 0 0 1 33.251-4.402c6.881 0 13.789.556 20.53 1.653 2.726.443 4.575 3.013 4.132 5.738s-3.01 4.579-5.738 4.132a118.164 118.164 0 0 0-18.924-1.523 117.19 117.19 0 0 0-30.637 4.055 5.074 5.074 0 0 1-1.31.174zM325.614 181.275a5 5 0 0 1-5-5c0-24.042-7.243-47.135-20.946-66.781-13.398-19.208-31.973-33.814-53.716-42.241a5 5 0 1 1 3.614-9.324c23.604 9.147 43.766 25 58.305 45.845 14.88 21.332 22.745 46.403 22.745 72.501a5.003 5.003 0 0 1-5.002 5z"/><circle style="fill:#f9e33d" cx="112.622" cy="213.394" r="25.275"/><circle style="fill:#f9e33d" cx="294.85" cy="213.394" r="25.275"/><path style="fill:#666" d="M112.622 243.669c-16.694 0-30.275-13.582-30.275-30.275s13.582-30.275 30.275-30.275 30.275 13.581 30.275 30.275-13.581 30.275-30.275 30.275zm0-50.55c-11.18 0-20.275 9.095-20.275 20.275s9.096 20.275 20.275 20.275 20.275-9.096 20.275-20.275-9.095-20.275-20.275-20.275zM294.85 243.669c-16.694 0-30.275-13.582-30.275-30.275s13.581-30.275 30.275-30.275 30.275 13.581 30.275 30.275-13.581 30.275-30.275 30.275zm0-50.55c-11.18 0-20.275 9.095-20.275 20.275s9.095 20.275 20.275 20.275 20.275-9.096 20.275-20.275-9.096-20.275-20.275-20.275z"/><path style="fill:#8fcdf7" d="M195.725 315.533c-48.795 0-88.493-39.698-88.493-88.492v-30.637c0-48.795 39.698-88.492 88.493-88.492h16.011c48.795 0 88.493 39.698 88.493 88.492v30.637c0 48.795-39.698 88.492-88.493 88.492h-16.011z"/><path style="fill:#d8b86f" d="M273.433 202.873v28.973c0 34.308-27.824 62.132-62.132 62.132h-15.142c-34.308 0-62.132-27.824-62.132-62.132v-28.973c0-34.308 27.824-62.132 62.132-62.132h15.142c34.309 0 62.132 27.824 62.132 62.132z"/><path style="fill:#f7d789" d="M251.286 202.873v28.973c0 34.308-18.983 62.132-42.39 62.132h-10.331c-23.407 0-42.39-27.824-42.39-62.132v-28.973c0-34.308 18.983-62.132 42.39-62.132h10.331c23.407 0 42.39 27.824 42.39 62.132z"/><path style="fill:#44a1e0" d="M381.514 337.051c-14.142-22.375-24.104-34.509-24.104-34.509a112.93 112.93 0 0 0-10.148-11.888l-33.936-24.302a118.846 118.846 0 0 0-19.724-7.31h-.012c-2.172 47.74-41.562 85.787-89.863 85.787-48.289 0-87.679-38.047-89.851-85.787a119.922 119.922 0 0 0-19.783 7.334l-33.925 24.302a116.084 116.084 0 0 0-10.148 11.865s-9.973 12.145-24.092 34.509c-6.329 10.018-13.476 22.07-20.927 36.014h397.428a579.219 579.219 0 0 0-20.915-36.015z"/><path style="fill:#53aef9" d="M363.974 337.051c-.07-.117-.117-.222-.187-.327-9.261-14.656-20.32-28.074-32.874-40.033l-31.846-30.34a76.64 76.64 0 0 0-5.792-2.896c-26.684 55.915-121.884 99.03-179.095 0a92.692 92.692 0 0 0-5.804 2.908L76.53 296.691c-12.554 11.958-23.636 25.376-32.897 40.033-.047.105-.117.21-.199.327-6.33 10.008-13.476 22.072-20.915 36.015h362.394c-7.451-13.944-14.598-26.007-20.939-36.015z"/><path style="fill:#666" d="M211.736 320.533h-16.011c-51.552 0-93.493-41.94-93.493-93.492v-30.638c0-51.552 41.941-93.492 93.493-93.492h16.011c51.552 0 93.493 41.94 93.493 93.492v30.638c0 51.552-41.941 93.492-93.493 93.492zm-16.011-207.622c-46.038 0-83.493 37.455-83.493 83.492v30.638c0 46.038 37.455 83.492 83.493 83.492h16.011c46.038 0 83.493-37.455 83.493-83.492v-30.638c0-46.038-37.455-83.492-83.493-83.492h-16.011z"/><path style="fill:#666" d="M211.301 298.978h-15.143c-37.017 0-67.132-30.115-67.132-67.132v-28.973c0-37.017 30.115-67.132 67.132-67.132h15.143c37.017 0 67.132 30.115 67.132 67.132v28.973c0 37.017-30.115 67.132-67.132 67.132zm-15.142-153.237c-31.502 0-57.132 25.629-57.132 57.132v28.973c0 31.503 25.629 57.132 57.132 57.132h15.142c31.502 0 57.132-25.629 57.132-57.132v-28.973c0-31.502-25.629-57.132-57.132-57.132h-15.142z"/><path style="fill:#666" d="M185.346 228.224a5 5 0 0 1-5-5v-34.883a5 5 0 0 1 10 0v34.883a5 5 0 0 1-5 5zM222.115 228.224a5 5 0 0 1-5-5v-34.883a5 5 0 0 1 10 0v34.883a5 5 0 0 1-5 5z"/><path style="fill:#333" d="M402.429 378.066H5.001a5 5 0 0 1-4.412-7.354c6.678-12.518 13.782-24.742 21.113-36.334 12.032-19.066 39.505-55.647 66.131-71.789a5.001 5.001 0 0 1 6.533 1.199c26.504 33.941 66.369 53.408 109.372 53.408 42.914 0 82.716-19.388 109.201-53.192a5.002 5.002 0 0 1 6.565-1.17c27.364 16.913 55.293 54.197 66.238 71.549a584.63 584.63 0 0 1 21.098 36.329 4.999 4.999 0 0 1-4.411 7.354zm-389.025-10h380.62a574.738 574.738 0 0 0-16.741-28.35c-11.601-18.392-36.4-50.137-59.361-65.97-28.355 34.027-69.712 53.45-114.184 53.45-44.582 0-86.013-19.51-114.39-53.697-23.892 16.2-48.188 48.784-59.192 66.22a557.309 557.309 0 0 0-16.752 28.347z"/><path style="fill:#333" d="M113.763 356.853a4.987 4.987 0 0 1-3.763-1.706l-52.665-60.125a5.001 5.001 0 0 1 7.523-6.589l52.665 60.125a5.001 5.001 0 0 1-3.76 8.295zM275.078 378.066a5 5 0 0 1-3.76-8.294l37.405-42.718a5 5 0 1 1 7.524 6.588l-37.405 42.718a4.988 4.988 0 0 1-3.764 1.706zM330.467 314.819a5.001 5.001 0 0 1-3.759-8.295l15.655-17.875a5.001 5.001 0 0 1 7.523 6.589l-15.655 17.875a4.99 4.99 0 0 1-3.764 1.706z"/><circle style="fill:#ed6b5d" cx="229.882" cy="276.399" r="11.333"/><path style="fill:#666" d="M229.882 292.733c-9.006 0-16.333-7.327-16.333-16.333s7.327-16.333 16.333-16.333 16.333 7.327 16.333 16.333-7.327 16.333-16.333 16.333zm0-22.667c-3.492 0-6.333 2.841-6.333 6.333s2.841 6.333 6.333 6.333 6.333-2.841 6.333-6.333-2.841-6.333-6.333-6.333z"/></svg>